<svg xmlns="http://www.w3.org/2000/svg" width="48" height="48" fill="none"><rect width="48" height="48" fill="#006D34" rx="12"/><path stroke="#fff" stroke-width="2" d="m41 8-5.225 4.163m0 0A6.788 6.788 0 0 0 30.456 9.6a6.77 6.77 0 0 0-4.279 1.515 6.787 6.787 0 0 0-2.521 5.285c0 1.878.761 3.578 1.992 4.808a6.8 6.8 0 0 0 10.127-9.046ZM21.242 36.346l-1.61 2.788a1 1 0 0 1-1.366.366l-4.25-2.453a1 1 0 0 1-.366-1.366l1.61-2.787a.854.854 0 0 0-.077-.976.851.851 0 0 0-.834-.304l-3.06.59a1 1 0 0 1-1.17-.793l-.93-4.817a1 1 0 0 1 .793-1.171l3.06-.59c2.6-.502 4.956.305 6.641 1.822 2.55 2.296 3.563 6.219 1.559 9.691Zm-5.799-21.24-1.61-2.786a1 1 0 0 1 .367-1.367L18.45 8.5a1 1 0 0 1 1.365.366l1.609 2.787h.001c2.005 3.473.992 7.396-1.558 9.692-1.685 1.517-4.041 2.324-6.642 1.822l-3.06-.59a1 1 0 0 1-.792-1.17l.928-4.818a1 1 0 0 1 1.172-.793l3.059.59a.85.85 0 0 0 .834-.304.855.855 0 0 0 .077-.976ZM30.7 32.894l1.61 2.787a1 1 0 0 1-.367 1.366L27.694 39.5a1 1 0 0 1-1.366-.366l-1.608-2.787-.002-.001c-.894-1.55-1.188-3.188-1.012-4.732a7.902 7.902 0 0 1 2.169-4.57c1.7-1.764 4.229-2.754 7.043-2.211l3.06.59a1 1 0 0 1 .793 1.171l-.93 4.817a1 1 0 0 1-1.17.792l-3.06-.59a.853.853 0 0 0-.886.377.852.852 0 0 0-.025.904Z"/></svg>